# xmcd
#
# Track frame offsets: 
#        150
#        17050
#        32250
#        50370
#        64692
#        83245
#        99116
#        122600
#        139150
#        155691
#        171139
#        187819
#        204686
#        221464
#
# Disc length: 4682 seconds
#
# Revision: 4
# Processed by: cddbd v1.5.2PL0 Copyright (c) Steve Scherf et al.
# Submitted via: ExactAudioCopy v0.99pb3
#
DISCID=b112480e
DTITLE=Rosanne Cash - Black Cadillac
DYEAR=2006
DGENRE=Country
TTITLE0=Black Cadillac
TTITLE1=Radio Operator
TTITLE2=I Was Watching You
TTITLE3=Burn Down This Town
TTITLE4=God Is In The Roses
TTITLE5=House On The Lake
TTITLE6=The World Unseen
TTITLE7=Like Fugitives
TTITLE8=Dreams Are Not My Home
TTITLE9=Like A Wave
TTITLE10=World Without Sound
TTITLE11=The Good Intent
TTITLE12=0:71
TTITLE13=Video: Reflections On Black Cadillac
EXTD=
EXTT0=
EXTT1=
EXTT2=
EXTT3=
EXTT4=
EXTT5=
EXTT6=
EXTT7=
EXTT8=
EXTT9=
EXTT10=
EXTT11=
EXTT12=
EXTT13=
PLAYORDER=
